#!OML:ASF E:\motion texture\Top Level 1\Subject 1\Session 1\male.ASF
:FULLY-SPECIFIED
:DEGREES
331
root -5.46861 17.8082 5.15857 105.379 -82.7745 -97.6907
lowerback -2.23137 5.02964 2.51503
upperback -1.9783 6.646 0.911776
thorax -0.610025 3.29181 -0.343061
lowerneck -16.6321 -3.36117 -6.2598
upperneck 14.2221 -5.47819 12.6464
head 7.66753 -1.85292 4.5908
rclavicle -5.06652e-014 2.10712e-014
rhumerus -35.5092 -28.5994 -67.8136
rradius 13.2038
rwrist 42.1041
rhand -11.2428 -30.154
rfingers 7.12502
rthumb 14.7866 -59.6065
lclavicle -5.06652e-014 2.10712e-014
lhumerus -39.8726 20.6404 62.4505
lradius 30.4625
lwrist -25.1677
lhand -7.21132 20.0544
lfingers 7.12502
lthumb 18.6676 49.1787
rfemur -1.80302 1.2667 32.929
rtibia 31.3469
rfoot -4.41911 4.10395
rtoes 8.76991
lfemur -30.3048 -8.16291 -5.27289
ltibia 18.7161
lfoot -4.02831 3.93182
ltoes -12.1939
332
root -5.649 17.804 5.17086 109.581 -82.8721 -101.997
lowerback -2.23069 4.89287 2.33683
upperback -1.94055 6.46628 0.918747
thorax -0.595962 3.20455 -0.241611
lowerneck -16.6681 -3.08706 -6.03085
upperneck 14.3925 -5.13991 12.4671
head 7.68271 -1.69015 4.5354
rclavicle -7.04692e-014 1.98785e-014
rhumerus -38.2329 -31.6771 -64.4811
rradius 12.5728
rwrist 45.0901
rhand -10.9104 -29.6737
rfingers 7.12502
rthumb 15.1068 -59.1024
lclavicle -7.04692e-014 1.98785e-014
lhumerus -39.5696 21.0249 61.847
lradius 30.3577
lwrist -25.4218
lhand -7.36972 20.3109
lfingers 7.12502
lthumb 18.5152 49.4497
rfemur -2.19252 1.16339 32.387
rtibia 32.8371
rfoot -3.26871 4.30328
rtoes 8.83742
lfemur -29.935 -8.35302 -5.58505
ltibia 18.821
lfoot -3.93504 3.85835
ltoes -11.6599
333
root -5.82919 17.8011 5.18299 113.813 -82.9414 -106.342
lowerback -2.22455 4.75276 2.15542
upperback -1.89958 6.28242 0.92432
thorax -0.580832 3.11523 -0.139969
lowerneck -16.696 -2.81377 -5.80223
upperneck 14.5626 -4.80236 12.285
head 7.69788 -1.52835 4.47885
rclavicle 1.29459e-014 1.19271e-015
rhumerus -41.1939 -34.4339 -60.8403
rradius 12.0706
rwrist 47.9336
rhand -10.5775 -29.2332
rfingers 7.12502
rthumb 15.4274 -58.6375
lclavicle 1.29459e-014 1.19271e-015
lhumerus -39.268 21.4507 61.2412
lradius 30.2327
lwrist -25.7013
lhand -7.53009 20.567
lfingers 7.12502
lthumb 18.3609 49.7204
rfemur -2.64228 1.05607 31.8287
rtibia 34.3724
rfoot -2.07027 4.41379
rtoes 8.9255
lfemur -29.5375 -8.51511 -5.93733
ltibia 18.984
lfoot -3.86566 3.75649
ltoes -11.1012
334
root -6.00902 17.7995 5.19494 118.051 -82.9825 -110.701
lowerback -2.21165 4.60938 1.97157
upperback -1.85584 6.0945 0.928117
thorax -0.565644 3.02385 -0.0390459
lowerneck -16.7179 -2.5413 -5.57456
upperneck 14.733 -4.46539 12.1005
head 7.71367 -1.36734 4.42139
rclavicle -3.05631e-015 -5.96354e-015
rhumerus -44.3115 -36.7656 -57.0181
rradius 11.6894
rwrist 50.5145
rhand -10.2388 -28.8391
rfingers 7.12502
rthumb 15.7537 -58.218
lclavicle -3.05631e-015 -5.96354e-015
lhumerus -38.9684 21.9072 60.6404
lradius 30.0924
lwrist -25.9975
lhand -7.69535 20.8184
lfingers 7.12502
lthumb 18.202 49.9868
rfemur -3.15222 0.946128 31.2561
rtibia 35.9467
rfoot -0.840227 4.4336
rtoes 9.03033
lfemur -29.1117 -8.64855 -6.32764
ltibia 19.1964
lfoot -3.82345 3.62827
ltoes -10.5209
335
root -6.18834 17.7991 5.20667 122.262 -82.9963 -115.04
lowerback -2.19044 4.4627 1.78589
upperback -1.81084 5.9025 0.929464
thorax -0.552652 2.93036 0.0599777
lowerneck -16.7332 -2.26972 -5.3469
upperneck 14.9043 -4.12932 11.9134
head 7.73019 -1.20726 4.36279
rclavicle -3.04389e-014 -1.47101e-014
rhumerus -47.4716 -38.6082 -53.1703
rradius 11.4163
rwrist 52.7354
rhand -9.89512 -28.4897
rfingers 7.12502
rthumb 16.0846 -57.8422
lclavicle -3.04389e-014 -1.47101e-014
lhumerus -38.67 22.3881 60.0492
lradius 29.9382
lwrist -26.3096
lhand -7.864 21.065
lfingers 7.12502
lthumb 18.0397 50.2484
rfemur -3.72213 0.832706 30.6714
rtibia 37.553
rfoot 0.403631 4.3653
rtoes 9.13013
lfemur -28.6578 -8.75363 -6.75378
ltibia 19.4492
lfoot -3.80869 3.47615
ltoes -9.92754
336
root -6.36699 17.8 5.21821 126.43 -82.9831 -119.341
lowerback -2.16254 4.31363 1.59798
upperback -1.76397 5.70753 0.928887
thorax -0.54036 2.83533 0.158093
lowerneck -16.7419 -1.99971 -5.11945
upperneck 15.0752 -3.79453 11.7224
head 7.74696 -1.04845 4.30252
rclavicle -3.3694e-014 -1.27222e-014
rhumerus -50.5339 -39.9372 -49.4716
rradius 11.2378
rwrist 54.5166
rhand -9.54427 -28.1927
rfingers 7.12502
rthumb 16.4225 -57.5176
lclavicle -3.3694e-014 -1.27222e-014
lhumerus -38.3708 22.8869 59.4761
lradius 29.774
lwrist -26.6343
lhand -8.03227 21.3106
lfingers 7.12502
lthumb 17.8778 50.5088
rfemur -4.35052 0.717092 30.0766
rtibia 39.1826
rfoot 1.64478 4.21376
rtoes 9.22212
lfemur -28.1756 -8.83172 -7.21278
ltibia 19.733
lfoot -3.82208 3.30485
ltoes -9.32471
337
root -6.54481 17.8021 5.22951 130.516 -82.944 -123.565
lowerback -2.12706 4.16162 1.40871
upperback -1.71575 5.50884 0.926749
thorax -0.529734 2.73837 0.255126
lowerneck -16.7454 -1.73123 -4.89402
upperneck 15.2457 -3.46066 11.5286
head 7.76434 -0.890678 4.24141
rclavicle -1.48095e-014 2.18663e-014
rhumerus -53.3762 -40.783 -46.0626
rradius 11.1358
rwrist 55.8344
rhand -9.1883 -27.9438
rfingers 7.12502
rthumb 16.7652 -57.24
lclavicle -1.48095e-014 2.18663e-014
lhumerus -38.069 23.4021 58.9253
lradius 29.6001
lwrist -26.9724
lhand -8.20335 21.5503
lfingers 7.12502
lthumb 17.7132 50.7635
rfemur -5.03755 0.597218 29.4743
rtibia 40.8277
rfoot 2.86665 3.98537
rtoes 9.30892
lfemur -27.6661 -8.88514 -7.70062
ltibia 20.0382
lfoot -3.86302 3.11809
ltoes -8.71328
338
root -6.72168 17.8054 5.24052 134.484 -82.8815 -127.677
lowerback -2.0834 4.00633 1.218
upperback -1.66658 5.30591 0.923533
thorax -0.521563 2.63921 0.351587
lowerneck -16.7431 -1.46462 -4.66919
upperneck 15.4156 -3.12809 11.3302
head 7.78215 -0.734226 4.17851
rclavicle 5.2007e-014 -1.03368e-014
rhumerus -55.897 -41.1894 -43.0656
rradius 11.0993
rwrist 56.6698
rhand -8.82774 -27.744
rfingers 7.12502
rthumb 17.1122 -57.0104
lclavicle 5.2007e-014 -1.03368e-014
lhumerus -37.763 23.927 58.4029
lradius 29.4187
lwrist -27.3198
lhand -8.37683 21.7832
lfingers 7.12502
lthumb 17.5462 51.0114
rfemur -5.77872 0.472404 28.8681
rtibia 42.4777
rfoot 4.05171 3.6866
rtoes 9.38455
lfemur -27.1289 -8.91779 -8.21325
ltibia 20.3557
lfoot -3.93058 2.92045
ltoes -8.09979
339
root -6.89741 17.8099 5.25118 138.325 -82.7941 -131.664
lowerback -2.0325 3.84919 1.0272
upperback -1.61712 5.10057 0.919567
thorax -0.515846 2.53876 0.447217
lowerneck -16.7361 -1.20017 -4.4464
upperneck 15.5842 -2.79699 11.1287
head 7.80037 -0.579126 4.11453
rclavicle 4.80438e-014 -2.38542e-015
rhumerus -58.0359 -41.2215 -40.5511
rradius 11.1173
rwrist 57.0346
rhand -8.46598 -27.5944
rfingers 7.12502
rthumb 17.4604 -56.8303
lclavicle 4.80438e-014 -2.38542e-015
lhumerus -37.4499 24.4542 57.9153
lradius 29.2321
lwrist -27.6728
lhand -8.55251 22.0062
lfingers 7.12502
lthumb 17.3772 51.2494
rfemur -6.57562 0.344603 28.2622
rtibia 44.1262
rfoot 5.18363 3.32728
rtoes 9.44712
lfemur -26.5666 -8.92856 -8.74397
ltibia 20.6776
lfoot -4.02296 2.71847
ltoes -7.4822
340
root -7.07194 17.8155 5.2615 142.008 -82.6851 -135.496
lowerback -1.97458 3.69013 0.837314
upperback -1.56762 4.89263 0.91491
thorax -0.512625 2.4369 0.541562
lowerneck -16.7228 -0.938354 -4.2246
upperneck 15.7502 -2.46796 10.9231
head 7.81831 -0.425752 4.0489
rclavicle 2.97556e-014 -5.96354e-015
rhumerus -59.7794 -40.9509 -38.5344
rradius 11.1803
rwrist 56.9642
rhand -8.10414 -27.4972
rfingers 7.12502
rthumb 17.8086 -56.7017
lclavicle 2.97556e-014 -5.96354e-015
lhumerus -37.1279 24.9725 57.47
lradius 29.0444
lwrist -28.0235
lhand -8.73028 22.2194
lfingers 7.12502
lthumb 17.2061 51.4776
rfemur -7.4235 0.211516 27.6592
rtibia 45.7622
rfoot 6.24364 2.91756
rtoes 9.48068
lfemur -25.9779 -8.92305 -9.28936
ltibia 20.9922
lfoot -4.13695 2.51735
ltoes -6.87162
